<svg width="828" height="1753" viewBox="0 0 828 1753" class="keymap" xmlns="http://www.w3.org/2000/svg" xmlns:xlink="http://www.w3.org/1999/xlink">
<defs>/* start glyphs */
<symbol id="bluetooth" viewBox="0 0 256 512">
  <path d="M164.9 260L257.5 156.7 111.6 0 111.6 206.3 25.4 120.2-6 151.6 102.1 260-6 368.4 25.4 399.8 111.6 313.7 114.3 512 262.8 363.4 164.9 260zm40.9-103-50 50-.3-100.3 50.3 50.3zm-50 156 50 50-50.3 50.3.3-100.3z"/>
</symbol>
<symbol id="gamepad" viewBox="0 0 24 24">
  <path style="fill:none;stroke:currentColor;stroke-width:1.8;stroke-linecap:round;stroke-linejoin:round" d="M8 8h8a5 5 0 0 1 4.7 3.3l1.1 3.1a3 3 0 0 1-5.2 2.8L15 15H9l-1.6 2.2a3 3 0 0 1-5.2-2.8l1.1-3.1A5 5 0 0 1 8 8Z M7 11v4 M5 13h4 M16.5 11.5h.01 M18.5 13.5h.01"/>
</symbol>
</defs>/* end glyphs */
<style>/* inherit to force styles through use tags */
svg path {
    fill: inherit;
}

/* font and background color specifications */
svg.keymap {
    font-family: SFMono-Regular,Consolas,Liberation Mono,Menlo,monospace;
    font-size: 14px;
    font-kerning: normal;
    text-rendering: optimizeLegibility;
    fill: #24292e;
}

/* default key styling */
rect.key {
    fill: #f6f8fa;
}

rect.key, rect.combo {
    stroke: #c9cccf;
    stroke-width: 1;
}

/* default key side styling, only used is draw_key_sides is set */
rect.side {
    filter: brightness(90%);
}

/* color accent for combo boxes */
rect.combo, rect.combo-separate {
    fill: #cdf;
}

/* color accent for held keys */
rect.held, rect.combo.held {
    fill: #fdd;
}

/* color accent for ghost (optional) keys */
rect.ghost, rect.combo.ghost {
    stroke-dasharray: 4, 4;
    stroke-width: 2;
}

text {
    text-anchor: middle;
    dominant-baseline: middle;
}

/* styling for layer labels */
text.label {
    font-weight: bold;
    text-anchor: start;
    stroke: white;
    stroke-width: 4;
    paint-order: stroke;
}

/* styling for optional footer */
text.footer {
    text-anchor: end;
    dominant-baseline: auto;
    stroke: white;
    stroke-width: 4;
    paint-order: stroke;
}

/* styling for combo tap, and key non-tap label text */
text.combo, text.hold, text.shifted, text.left, text.right, text.tl, text.tr, text.bl, text.br {
    font-size: 11px;
}

text.hold, text.bl, text.br {
    text-anchor: middle;
    dominant-baseline: auto;
}

text.shifted, text.tl, text.tr {
    text-anchor: middle;
    dominant-baseline: hanging;
}

text.left, text.tl, text.bl {
    text-anchor: start;
}

text.right, text.tr, text.br {
    text-anchor: end;
}

text.layer-activator {
    text-decoration: underline;
}

/* styling for hold/shifted label text in combo box */
text.combo.hold, text.combo.shifted, text.combo.left, text.combo.right {
    font-size: 8px;
}

/* lighter symbol for transparent keys */
text.trans {
    fill: #7b7e81;
}

/* styling for combo dendrons */
path.combo {
    stroke-width: 1;
    stroke: gray;
    fill: none;
}

/* Start Tabler Icons Cleanup */
/* cannot use height/width with glyphs */
.icon-tabler > path {
    fill: inherit;
    stroke: inherit;
    stroke-width: 2;
}
/* hide tabler's default box */
.icon-tabler > path[stroke="none"][fill="none"] {
    visibility: hidden;
}
/* End Tabler Icons Cleanup */

.combopos-0 text.combo.tap { font-size: 12px; font-weight: 600; }
.combopos-1 text.combo.tap,
.combopos-2 text.combo.tap { font-size: 20px; }

.key.special text.tap { font-size: 20px; }

.layer-NavNum > text.label { fill: #2563eb; }
.layer-NavNum rect.key { stroke: #93c5fd; }
.layer-NavNum .held rect.key { fill: #dbeafe; stroke: #2563eb; stroke-width: 2; }

.layer-Symbols > text.label { fill: #d97706; }
.layer-Symbols rect.key { stroke: #fcd34d; }
.layer-Symbols .held rect.key { fill: #fef3c7; stroke: #d97706; stroke-width: 2; }

.layer-Fn > text.label { fill: #15803d; }
.layer-Fn rect.key { stroke: #86efac; }
.layer-Fn .held rect.key { fill: #dcfce7; stroke: #15803d; stroke-width: 2; }

.layer-Gaming > text.label { fill: #7c3aed; }
.layer-Gaming rect.key { stroke: #c4b5fd; }

.key.trigger-nav rect.key {
  fill: #dbeafe; stroke: #2563eb; stroke-width: 2;
}
.key.trigger-symbols rect.key {
  fill: #fef3c7; stroke: #d97706; stroke-width: 2;
}
.key.trigger-fn rect.key {
  fill: #dcfce7; stroke: #15803d; stroke-width: 2;
}
.combo.trigger-gaming rect.combo {
  fill: #ede9fe; stroke: #7c3aed; stroke-width: 2;
}
.combo.trigger-gaming use.gamepad { color: #7c3aed; }
.key.trigger-nav text.hold {
  fill: #2563eb;
  font-size: 16.5px;
  font-weight: bold;
}
.key.nav-lock text.tap {
  fill: #2563eb;
  font-size: 16.5px;
  font-weight: bold;
}
.key.nav-lock text.hold {
  fill: #24292e;
  font-size: 11px;
  font-weight: normal;
}
.key.trigger-symbols text.hold { fill: #d97706; font-weight: bold; }
.key.fn-label text.hold {
  fill: #24292e;
  font-size: 11px;
  font-weight: normal;
  transform: translateY(-4px);
}
</style>
<g class="keymap-legend">
<rect x="20" y="3" width="692" height="41" rx="6" fill="#f6f8fa" stroke="#c9cccf"/>
<text x="30" y="17" style="font-size:11px;text-anchor:start">⌃ Ctrl · ⌥ Alt · ◆ GUI · <tspan style="fill:#9333ea;font-weight:bold">purple top = Shift output</tspan> · bottom legend = hold</text>
<text x="30" y="35" style="font-size:11px;text-anchor:start"><tspan style="fill:#2563eb;font-weight:bold">⌖ NavNum</tspan> · <tspan style="fill:#d97706;font-weight:bold"># Symbols</tspan> · <tspan style="fill:#15803d;font-weight:bold">fn Fn</tspan> · <tspan style="fill:#7c3aed;font-weight:bold">Gaming</tspan> · outer+inner thumb (same hand) = Fn</text>
</g>
<g transform="translate(0, 49)">
<g transform="translate(30, 0)" class="layer-Base">
<text x="0" y="28" class="label" id="Base">Base:</text>
<g transform="translate(0, 56)">
<g transform="translate(31, 90) rotate(-7.0)" class="key keypos-0">
<rect rx="6" ry="6" x="-26" y="-26" width="52" height="52" class="key"/>
<text x="0" y="0" class="key tap">Q</text>
</g>
<g transform="translate(104, 45) rotate(-3.0)" class="key keypos-1">
<rect rx="6" ry="6" x="-26" y="-26" width="52" height="52" class="key"/>
<text x="0" y="0" class="key tap">W</text>
</g>
<g transform="translate(169, 28)" class="key keypos-2">
<rect rx="6" ry="6" x="-26" y="-26" width="52" height="52" class="key"/>
<text x="0" y="0" class="key tap">E</text>
</g>
<g transform="translate(229, 42)" class="key keypos-3">
<rect rx="6" ry="6" x="-26" y="-26" width="52" height="52" class="key"/>
<text x="0" y="0" class="key tap">R</text>
</g>
<g transform="translate(285, 48)" class="key keypos-4">
<rect rx="6" ry="6" x="-26" y="-26" width="52" height="52" class="key"/>
<text x="0" y="0" class="key tap">T</text>
</g>
<g transform="translate(484, 48)" class="key keypos-5">
<rect rx="6" ry="6" x="-26" y="-26" width="52" height="52" class="key"/>
<text x="0" y="0" class="key tap">Y</text>
</g>
<g transform="translate(540, 42)" class="key keypos-6">
<rect rx="6" ry="6" x="-26" y="-26" width="52" height="52" class="key"/>
<text x="0" y="0" class="key tap">U</text>
</g>
<g transform="translate(599, 28)" class="key keypos-7">
<rect rx="6" ry="6" x="-26" y="-26" width="52" height="52" class="key"/>
<text x="0" y="0" class="key tap">I</text>
</g>
<g transform="translate(664, 45) rotate(3.0)" class="key keypos-8">
<rect rx="6" ry="6" x="-26" y="-26" width="52" height="52" class="key"/>
<text x="0" y="0" class="key tap">O</text>
</g>
<g transform="translate(737, 90) rotate(7.0)" class="key keypos-9">
<rect rx="6" ry="6" x="-26" y="-26" width="52" height="52" class="key"/>
<text x="0" y="0" class="key tap">P</text>
</g>
<g transform="translate(38, 142) rotate(-7.0)" class="key keypos-10">
<rect rx="6" ry="6" x="-26" y="-26" width="52" height="52" class="key"/>
<text x="0" y="0" class="key tap">A</text>
<text x="0" y="24" class="key hold">⌃</text>
</g>
<g transform="translate(107, 98) rotate(-3.0)" class="key keypos-11">
<rect rx="6" ry="6" x="-26" y="-26" width="52" height="52" class="key"/>
<text x="0" y="0" class="key tap">S</text>
<text x="0" y="24" class="key hold">⌥</text>
</g>
<g transform="translate(169, 81)" class="key keypos-12">
<rect rx="6" ry="6" x="-26" y="-26" width="52" height="52" class="key"/>
<text x="0" y="0" class="key tap">D</text>
<text x="0" y="24" class="key hold">◆</text>
</g>
<g transform="translate(229, 95)" class="key keypos-13">
<rect rx="6" ry="6" x="-26" y="-26" width="52" height="52" class="key"/>
<text x="0" y="0" class="key tap">F</text>
<text x="0" y="24" class="key hold">⇧</text>
</g>
<g transform="translate(285, 101)" class="key keypos-14">
<rect rx="6" ry="6" x="-26" y="-26" width="52" height="52" class="key"/>
<text x="0" y="0" class="key tap">G</text>
</g>
<g transform="translate(484, 101)" class="key keypos-15">
<rect rx="6" ry="6" x="-26" y="-26" width="52" height="52" class="key"/>
<text x="0" y="0" class="key tap">H</text>
</g>
<g transform="translate(540, 95)" class="key keypos-16">
<rect rx="6" ry="6" x="-26" y="-26" width="52" height="52" class="key"/>
<text x="0" y="0" class="key tap">J</text>
<text x="0" y="24" class="key hold">RSHFT</text>
</g>
<g transform="translate(599, 81)" class="key keypos-17">
<rect rx="6" ry="6" x="-26" y="-26" width="52" height="52" class="key"/>
<text x="0" y="0" class="key tap">K</text>
<text x="0" y="24" class="key hold">◆</text>
</g>
<g transform="translate(661, 98) rotate(3.0)" class="key keypos-18">
<rect rx="6" ry="6" x="-26" y="-26" width="52" height="52" class="key"/>
<text x="0" y="0" class="key tap">L</text>
<text x="0" y="24" class="key hold">⌥</text>
</g>
<g transform="translate(731, 142) rotate(7.0)" class="key keypos-19">
<rect rx="6" ry="6" x="-26" y="-26" width="52" height="52" class="key"/>
<text x="0" y="0" class="key tap">;</text>
<text x="0" y="24" class="key hold">⌃</text>
<text x="0" y="-24" class="key shifted">:</text>
</g>
<g transform="translate(44, 195) rotate(-7.0)" class="key keypos-20">
<rect rx="6" ry="6" x="-26" y="-26" width="52" height="52" class="key"/>
<text x="0" y="0" class="key tap">Z</text>
</g>
<g transform="translate(110, 151) rotate(-3.0)" class="key keypos-21">
<rect rx="6" ry="6" x="-26" y="-26" width="52" height="52" class="key"/>
<text x="0" y="0" class="key tap">X</text>
</g>
<g transform="translate(169, 134)" class="key keypos-22">
<rect rx="6" ry="6" x="-26" y="-26" width="52" height="52" class="key"/>
<text x="0" y="0" class="key tap">C</text>
</g>
<g transform="translate(229, 148)" class="key keypos-23">
<rect rx="6" ry="6" x="-26" y="-26" width="52" height="52" class="key"/>
<text x="0" y="0" class="key tap">V</text>
</g>
<g transform="translate(285, 154)" class="key keypos-24">
<rect rx="6" ry="6" x="-26" y="-26" width="52" height="52" class="key"/>
<text x="0" y="0" class="key tap">B</text>
</g>
<g transform="translate(484, 154)" class="key keypos-25">
<rect rx="6" ry="6" x="-26" y="-26" width="52" height="52" class="key"/>
<text x="0" y="0" class="key tap">N</text>
</g>
<g transform="translate(540, 148)" class="key keypos-26">
<rect rx="6" ry="6" x="-26" y="-26" width="52" height="52" class="key"/>
<text x="0" y="0" class="key tap">M</text>
</g>
<g transform="translate(599, 134)" class="key keypos-27">
<rect rx="6" ry="6" x="-26" y="-26" width="52" height="52" class="key"/>
<text x="0" y="0" class="key tap">,</text>
<text x="0" y="-24" class="key shifted">&lt;</text>
</g>
<g transform="translate(658, 151) rotate(3.0)" class="key keypos-28">
<rect rx="6" ry="6" x="-26" y="-26" width="52" height="52" class="key"/>
<text x="0" y="0" class="key tap">.</text>
<text x="0" y="-24" class="key shifted">&gt;</text>
</g>
<g transform="translate(724, 195) rotate(7.0)" class="key keypos-29">
<rect rx="6" ry="6" x="-26" y="-26" width="52" height="52" class="key"/>
<text x="0" y="0" class="key tap">/</text>
<text x="0" y="-24" class="key shifted">?</text>
</g>
<g transform="translate(272, 222) rotate(10.0)" class="key special trigger-nav keypos-30">
<rect rx="6" ry="6" x="-26" y="-26" width="52" height="52" class="key special trigger-nav"/>
<text x="0" y="0" class="key special trigger-nav tap">⌫</text>
<text x="0" y="24" class="key special trigger-nav hold">⌖</text>
</g>
<g transform="translate(327, 238) rotate(20.0)" class="key special keypos-31">
<rect rx="6" ry="6" x="-26" y="-26" width="52" height="52" class="key special"/>
<text x="0" y="0" class="key special tap">⇧</text>
<text x="0" y="24" class="key special hold">sticky</text>
</g>
<g transform="translate(441, 238) rotate(-20.0)" class="key special trigger-symbols keypos-32">
<rect rx="6" ry="6" x="-26" y="-26" width="52" height="52" class="key special trigger-symbols"/>
<text x="0" y="0" class="key special trigger-symbols tap">⇥</text>
<text x="0" y="24" class="key special trigger-symbols hold">#</text>
</g>
<g transform="translate(496, 222) rotate(-10.0)" class="key special trigger-nav keypos-33">
<rect rx="6" ry="6" x="-26" y="-26" width="52" height="52" class="key special trigger-nav"/>
<text x="0" y="0" class="key special trigger-nav tap">⎵</text>
<text x="0" y="24" class="key special trigger-nav hold">⌖</text>
</g>
<g class="combo combopos-0">
<path d="M384,195 l-321,0" class="combo"/>
<path d="M384,195 l321,0" class="combo"/>
<rect rx="6" ry="6" x="352" y="180" width="64" height="30" class="combo"/>
<text x="384" y="195" class="combo tap">
<tspan x="384" dy="-0.6em">Caps</tspan><tspan x="384" dy="1.2em">Word</tspan>
</text>
</g>
<g class="combo combopos-1">
<rect rx="6" ry="6" x="126" y="129" width="28" height="26" class="combo"/>
<text x="140" y="142" class="combo tap">⎋</text>
</g>
<g class="combo combopos-2">
<rect rx="6" ry="6" x="615" y="129" width="28" height="26" class="combo"/>
<text x="629" y="142" class="combo tap">⏎</text>
</g>
<g class="combo trigger-gaming combopos-3">
<rect rx="6" ry="6" x="675" y="158" width="32" height="30" class="combo trigger-gaming"/>
<use href="#gamepad" xlink:href="#gamepad" x="680" y="162" height="22" width="22.0" class="combo trigger-gaming tap glyph gamepad"/>
</g>
</g>
</g>
<g transform="translate(30, 330)" class="layer-Symbols">
<text x="0" y="28" class="label" id="Symbols">Symbols:</text>
<g transform="translate(0, 56)">
<g transform="translate(31, 90) rotate(-7.0)" class="key keypos-0">
<rect rx="6" ry="6" x="-26" y="-26" width="52" height="52" class="key"/>
<text x="0" y="0" class="key tap">^</text>
</g>
<g transform="translate(104, 45) rotate(-3.0)" class="key keypos-1">
<rect rx="6" ry="6" x="-26" y="-26" width="52" height="52" class="key"/>
<text x="0" y="0" class="key tap">&lt;</text>
</g>
<g transform="translate(169, 28)" class="key keypos-2">
<rect rx="6" ry="6" x="-26" y="-26" width="52" height="52" class="key"/>
<text x="0" y="0" class="key tap">&gt;</text>
</g>
<g transform="translate(229, 42)" class="key keypos-3">
<rect rx="6" ry="6" x="-26" y="-26" width="52" height="52" class="key"/>
<text x="0" y="0" class="key tap">$</text>
</g>
<g transform="translate(285, 48)" class="key keypos-4">
<rect rx="6" ry="6" x="-26" y="-26" width="52" height="52" class="key"/>
<text x="0" y="0" class="key tap">%</text>
</g>
<g transform="translate(484, 48)" class="key keypos-5">
<rect rx="6" ry="6" x="-26" y="-26" width="52" height="52" class="key"/>
<text x="0" y="0" class="key tap">@</text>
</g>
<g transform="translate(540, 42)" class="key keypos-6">
<rect rx="6" ry="6" x="-26" y="-26" width="52" height="52" class="key"/>
<text x="0" y="0" class="key tap">&amp;</text>
</g>
<g transform="translate(599, 28)" class="key keypos-7">
<rect rx="6" ry="6" x="-26" y="-26" width="52" height="52" class="key"/>
<text x="0" y="0" class="key tap">*</text>
</g>
<g transform="translate(664, 45) rotate(3.0)" class="key keypos-8">
<rect rx="6" ry="6" x="-26" y="-26" width="52" height="52" class="key"/>
<text x="0" y="0" class="key tap">&#x27;</text>
</g>
<g transform="translate(737, 90) rotate(7.0)" class="key keypos-9">
<rect rx="6" ry="6" x="-26" y="-26" width="52" height="52" class="key"/>
<text x="0" y="0" class="key tap">`</text>
</g>
<g transform="translate(38, 142) rotate(-7.0)" class="key keypos-10">
<rect rx="6" ry="6" x="-26" y="-26" width="52" height="52" class="key"/>
<text x="0" y="0" class="key tap">{</text>
</g>
<g transform="translate(107, 98) rotate(-3.0)" class="key keypos-11">
<rect rx="6" ry="6" x="-26" y="-26" width="52" height="52" class="key"/>
<text x="0" y="0" class="key tap">(</text>
</g>
<g transform="translate(169, 81)" class="key keypos-12">
<rect rx="6" ry="6" x="-26" y="-26" width="52" height="52" class="key"/>
<text x="0" y="0" class="key tap">)</text>
</g>
<g transform="translate(229, 95)" class="key keypos-13">
<rect rx="6" ry="6" x="-26" y="-26" width="52" height="52" class="key"/>
<text x="0" y="0" class="key tap">}</text>
</g>
<g transform="translate(285, 101)" class="key keypos-14">
<rect rx="6" ry="6" x="-26" y="-26" width="52" height="52" class="key"/>
<text x="0" y="0" class="key tap">=</text>
</g>
<g transform="translate(484, 101)" class="key keypos-15">
<rect rx="6" ry="6" x="-26" y="-26" width="52" height="52" class="key"/>
<text x="0" y="0" class="key tap">\</text>
</g>
<g transform="translate(540, 95)" class="key keypos-16">
<rect rx="6" ry="6" x="-26" y="-26" width="52" height="52" class="key"/>
<text x="0" y="0" class="key tap">+</text>
</g>
<g transform="translate(599, 81)" class="key keypos-17">
<rect rx="6" ry="6" x="-26" y="-26" width="52" height="52" class="key"/>
<text x="0" y="0" class="key tap">-</text>
</g>
<g transform="translate(661, 98) rotate(3.0)" class="key keypos-18">
<rect rx="6" ry="6" x="-26" y="-26" width="52" height="52" class="key"/>
<text x="0" y="0" class="key tap">/</text>
</g>
<g transform="translate(731, 142) rotate(7.0)" class="key keypos-19">
<rect rx="6" ry="6" x="-26" y="-26" width="52" height="52" class="key"/>
<text x="0" y="0" class="key tap">&quot;</text>
</g>
<g transform="translate(44, 195) rotate(-7.0)" class="key keypos-20">
<rect rx="6" ry="6" x="-26" y="-26" width="52" height="52" class="key"/>
<text x="0" y="0" class="key tap">~</text>
</g>
<g transform="translate(110, 151) rotate(-3.0)" class="key keypos-21">
<rect rx="6" ry="6" x="-26" y="-26" width="52" height="52" class="key"/>
<text x="0" y="0" class="key tap">[</text>
</g>
<g transform="translate(169, 134)" class="key keypos-22">
<rect rx="6" ry="6" x="-26" y="-26" width="52" height="52" class="key"/>
<text x="0" y="0" class="key tap">]</text>
</g>
<g transform="translate(229, 148)" class="key keypos-23">
<rect rx="6" ry="6" x="-26" y="-26" width="52" height="52" class="key"/>
<text x="0" y="0" class="key tap">_</text>
</g>
<g transform="translate(285, 154)" class="key keypos-24">
<rect rx="6" ry="6" x="-26" y="-26" width="52" height="52" class="key"/>
<text x="0" y="0" class="key tap">#</text>
</g>
<g transform="translate(484, 154)" class="key keypos-25">
<rect rx="6" ry="6" x="-26" y="-26" width="52" height="52" class="key"/>
<text x="0" y="0" class="key tap">|</text>
</g>
<g transform="translate(540, 148)" class="key keypos-26">
<rect rx="6" ry="6" x="-26" y="-26" width="52" height="52" class="key"/>
<text x="0" y="0" class="key tap">!</text>
</g>
<g transform="translate(599, 134)" class="key keypos-27">
<rect rx="6" ry="6" x="-26" y="-26" width="52" height="52" class="key"/>
<text x="0" y="0" class="key tap">;</text>
</g>
<g transform="translate(658, 151) rotate(3.0)" class="key keypos-28">
<rect rx="6" ry="6" x="-26" y="-26" width="52" height="52" class="key"/>
<text x="0" y="0" class="key tap">:</text>
</g>
<g transform="translate(724, 195) rotate(7.0)" class="key keypos-29">
<rect rx="6" ry="6" x="-26" y="-26" width="52" height="52" class="key"/>
<text x="0" y="0" class="key tap">?</text>
</g>
<g transform="translate(272, 222) rotate(10.0)" class="key trans keypos-30">
<rect rx="6" ry="6" x="-26" y="-26" width="52" height="52" class="key trans"/>
<text x="0" y="0" class="key trans tap">▽</text>
</g>
<g transform="translate(327, 238) rotate(20.0)" class="key trans keypos-31">
<rect rx="6" ry="6" x="-26" y="-26" width="52" height="52" class="key trans"/>
<text x="0" y="0" class="key trans tap">▽</text>
</g>
<g transform="translate(441, 238) rotate(-20.0)" class="key held keypos-32">
<rect rx="6" ry="6" x="-26" y="-26" width="52" height="52" class="key held"/>
</g>
<g transform="translate(496, 222) rotate(-10.0)" class="key trans keypos-33">
<rect rx="6" ry="6" x="-26" y="-26" width="52" height="52" class="key trans"/>
<text x="0" y="0" class="key trans tap">▽</text>
</g>
</g>
</g>
<g transform="translate(30, 659)" class="layer-NavNum">
<text x="0" y="28" class="label" id="NavNum">NavNum:</text>
<g transform="translate(0, 56)">
<g transform="translate(31, 90) rotate(-7.0)" class="key keypos-0">
<rect rx="6" ry="6" x="-26" y="-26" width="52" height="52" class="key"/>
<text x="0" y="0" class="key tap">⌃W</text>
</g>
<g transform="translate(104, 45) rotate(-3.0)" class="key special keypos-1">
<rect rx="6" ry="6" x="-26" y="-26" width="52" height="52" class="key special"/>
<text x="0" y="0" class="key special tap">↖</text>
</g>
<g transform="translate(169, 28)" class="key special keypos-2">
<rect rx="6" ry="6" x="-26" y="-26" width="52" height="52" class="key special"/>
<text x="0" y="0" class="key special tap">↑</text>
</g>
<g transform="translate(229, 42)" class="key special keypos-3">
<rect rx="6" ry="6" x="-26" y="-26" width="52" height="52" class="key special"/>
<text x="0" y="0" class="key special tap">↘</text>
</g>
<g transform="translate(285, 48)" class="key special keypos-4">
<rect rx="6" ry="6" x="-26" y="-26" width="52" height="52" class="key special"/>
<text x="0" y="0" class="key special tap">⇞</text>
</g>
<g transform="translate(484, 48)" class="key trigger-nav nav-lock keypos-5">
<rect rx="6" ry="6" x="-26" y="-26" width="52" height="52" class="key trigger-nav nav-lock"/>
<text x="0" y="0" class="key trigger-nav nav-lock tap">⌖</text>
<text x="0" y="24" class="key trigger-nav nav-lock hold">lock</text>
</g>
<g transform="translate(540, 42)" class="key keypos-6">
<rect rx="6" ry="6" x="-26" y="-26" width="52" height="52" class="key"/>
<text x="0" y="0" class="key tap">7</text>
</g>
<g transform="translate(599, 28)" class="key keypos-7">
<rect rx="6" ry="6" x="-26" y="-26" width="52" height="52" class="key"/>
<text x="0" y="0" class="key tap">8</text>
</g>
<g transform="translate(664, 45) rotate(3.0)" class="key keypos-8">
<rect rx="6" ry="6" x="-26" y="-26" width="52" height="52" class="key"/>
<text x="0" y="0" class="key tap">9</text>
</g>
<g transform="translate(737, 90) rotate(7.0)" class="key keypos-9">
<rect rx="6" ry="6" x="-26" y="-26" width="52" height="52" class="key"/>
<text x="0" y="0" class="key tap">/</text>
</g>
<g transform="translate(38, 142) rotate(-7.0)" class="key keypos-10">
<rect rx="6" ry="6" x="-26" y="-26" width="52" height="52" class="key"/>
<text x="0" y="0" class="key tap">⌃A</text>
</g>
<g transform="translate(107, 98) rotate(-3.0)" class="key special keypos-11">
<rect rx="6" ry="6" x="-26" y="-26" width="52" height="52" class="key special"/>
<text x="0" y="0" class="key special tap">←</text>
</g>
<g transform="translate(169, 81)" class="key special keypos-12">
<rect rx="6" ry="6" x="-26" y="-26" width="52" height="52" class="key special"/>
<text x="0" y="0" class="key special tap">↓</text>
</g>
<g transform="translate(229, 95)" class="key special keypos-13">
<rect rx="6" ry="6" x="-26" y="-26" width="52" height="52" class="key special"/>
<text x="0" y="0" class="key special tap">→</text>
</g>
<g transform="translate(285, 101)" class="key special keypos-14">
<rect rx="6" ry="6" x="-26" y="-26" width="52" height="52" class="key special"/>
<text x="0" y="0" class="key special tap">⇟</text>
</g>
<g transform="translate(484, 101)" class="key keypos-15">
<rect rx="6" ry="6" x="-26" y="-26" width="52" height="52" class="key"/>
<text x="0" y="0" class="key tap">-</text>
</g>
<g transform="translate(540, 95)" class="key keypos-16">
<rect rx="6" ry="6" x="-26" y="-26" width="52" height="52" class="key"/>
<text x="0" y="0" class="key tap">4</text>
</g>
<g transform="translate(599, 81)" class="key keypos-17">
<rect rx="6" ry="6" x="-26" y="-26" width="52" height="52" class="key"/>
<text x="0" y="0" class="key tap">5</text>
</g>
<g transform="translate(661, 98) rotate(3.0)" class="key keypos-18">
<rect rx="6" ry="6" x="-26" y="-26" width="52" height="52" class="key"/>
<text x="0" y="0" class="key tap">6</text>
</g>
<g transform="translate(731, 142) rotate(7.0)" class="key keypos-19">
<rect rx="6" ry="6" x="-26" y="-26" width="52" height="52" class="key"/>
<text x="0" y="0" class="key tap">0</text>
</g>
<g transform="translate(44, 195) rotate(-7.0)" class="key keypos-20">
<rect rx="6" ry="6" x="-26" y="-26" width="52" height="52" class="key"/>
<text x="0" y="0" class="key tap">⌃Z</text>
</g>
<g transform="translate(110, 151) rotate(-3.0)" class="key keypos-21">
<rect rx="6" ry="6" x="-26" y="-26" width="52" height="52" class="key"/>
<text x="0" y="0" class="key tap">⌃X</text>
</g>
<g transform="translate(169, 134)" class="key keypos-22">
<rect rx="6" ry="6" x="-26" y="-26" width="52" height="52" class="key"/>
<text x="0" y="0" class="key tap">⌃C</text>
</g>
<g transform="translate(229, 148)" class="key keypos-23">
<rect rx="6" ry="6" x="-26" y="-26" width="52" height="52" class="key"/>
<text x="0" y="0" class="key tap">⌃V</text>
</g>
<g transform="translate(285, 154)" class="key keypos-24">
<rect rx="6" ry="6" x="-26" y="-26" width="52" height="52" class="key"/>
<text x="0" y="0" class="key tap">⌃Y</text>
</g>
<g transform="translate(484, 154)" class="key keypos-25">
<rect rx="6" ry="6" x="-26" y="-26" width="52" height="52" class="key"/>
<text x="0" y="0" class="key tap">,</text>
</g>
<g transform="translate(540, 148)" class="key keypos-26">
<rect rx="6" ry="6" x="-26" y="-26" width="52" height="52" class="key"/>
<text x="0" y="0" class="key tap">1</text>
</g>
<g transform="translate(599, 134)" class="key keypos-27">
<rect rx="6" ry="6" x="-26" y="-26" width="52" height="52" class="key"/>
<text x="0" y="0" class="key tap">2</text>
</g>
<g transform="translate(658, 151) rotate(3.0)" class="key keypos-28">
<rect rx="6" ry="6" x="-26" y="-26" width="52" height="52" class="key"/>
<text x="0" y="0" class="key tap">3</text>
</g>
<g transform="translate(724, 195) rotate(7.0)" class="key keypos-29">
<rect rx="6" ry="6" x="-26" y="-26" width="52" height="52" class="key"/>
<text x="0" y="0" class="key tap">.</text>
</g>
<g transform="translate(272, 222) rotate(10.0)" class="key held keypos-30">
<rect rx="6" ry="6" x="-26" y="-26" width="52" height="52" class="key held"/>
</g>
<g transform="translate(327, 238) rotate(20.0)" class="key special fn-label trigger-fn keypos-31">
<rect rx="6" ry="6" x="-26" y="-26" width="52" height="52" class="key special fn-label trigger-fn"/>
<text x="0" y="0" class="key special fn-label trigger-fn tap">⌦</text>
<text x="0" y="24" class="key special fn-label trigger-fn hold">fn</text>
</g>
<g transform="translate(441, 238) rotate(-20.0)" class="key special fn-label trigger-fn keypos-32">
<rect rx="6" ry="6" x="-26" y="-26" width="52" height="52" class="key special fn-label trigger-fn"/>
<text x="0" y="0" class="key special fn-label trigger-fn tap">⌃⌥◆⇧⎵</text>
<text x="0" y="24" class="key special fn-label trigger-fn hold">fn</text>
</g>
<g transform="translate(496, 222) rotate(-10.0)" class="key trans keypos-33">
<rect rx="6" ry="6" x="-26" y="-26" width="52" height="52" class="key trans"/>
<text x="0" y="0" class="key trans tap">▽</text>
</g>
</g>
</g>
<g transform="translate(30, 989)" class="layer-Fn">
<text x="0" y="28" class="label" id="Fn">Fn:</text>
<g transform="translate(0, 56)">
<g transform="translate(31, 90) rotate(-7.0)" class="key keypos-0">
<rect rx="6" ry="6" x="-26" y="-26" width="52" height="52" class="key"/>
<text x="0" y="0" class="key tap">F1</text>
</g>
<g transform="translate(104, 45) rotate(-3.0)" class="key keypos-1">
<rect rx="6" ry="6" x="-26" y="-26" width="52" height="52" class="key"/>
<text x="0" y="0" class="key tap">F2</text>
</g>
<g transform="translate(169, 28)" class="key keypos-2">
<rect rx="6" ry="6" x="-26" y="-26" width="52" height="52" class="key"/>
<text x="0" y="0" class="key tap">F3</text>
</g>
<g transform="translate(229, 42)" class="key keypos-3">
<rect rx="6" ry="6" x="-26" y="-26" width="52" height="52" class="key"/>
<text x="0" y="0" class="key tap">F4</text>
</g>
<g transform="translate(285, 48)" class="key keypos-4">
<rect rx="6" ry="6" x="-26" y="-26" width="52" height="52" class="key"/>
<text x="0" y="0" class="key tap">F13</text>
</g>
<g transform="translate(484, 48)" class="key keypos-5">
<rect rx="6" ry="6" x="-26" y="-26" width="52" height="52" class="key"/>
<use href="#bluetooth" xlink:href="#bluetooth" x="-6" y="-11" height="22" width="11.0" class="key tap glyph bluetooth"/>
<text x="0" y="24" class="key hold">2</text>
</g>
<g transform="translate(540, 42)" class="key special keypos-6">
<rect rx="6" ry="6" x="-26" y="-26" width="52" height="52" class="key special"/>
<text x="0" y="0" class="key special tap">⏭</text>
</g>
<g transform="translate(599, 28)" class="key keypos-7">
<rect rx="6" ry="6" x="-26" y="-26" width="52" height="52" class="key"/>
<text x="0" y="0" class="key tap">♪+</text>
</g>
<g transform="translate(664, 45) rotate(3.0)" class="key keypos-8">
<rect rx="6" ry="6" x="-26" y="-26" width="52" height="52" class="key"/>
<text x="0" y="0" class="key tap">☀+</text>
</g>
<g transform="translate(737, 90) rotate(7.0)" class="key keypos-9">
<rect rx="6" ry="6" x="-26" y="-26" width="52" height="52" class="key"/>
<text x="0" y="0" class="key tap">Scroll</text>
</g>
<g transform="translate(38, 142) rotate(-7.0)" class="key keypos-10">
<rect rx="6" ry="6" x="-26" y="-26" width="52" height="52" class="key"/>
<text x="0" y="0" class="key tap">F5</text>
</g>
<g transform="translate(107, 98) rotate(-3.0)" class="key keypos-11">
<rect rx="6" ry="6" x="-26" y="-26" width="52" height="52" class="key"/>
<text x="0" y="0" class="key tap">F6</text>
</g>
<g transform="translate(169, 81)" class="key keypos-12">
<rect rx="6" ry="6" x="-26" y="-26" width="52" height="52" class="key"/>
<text x="0" y="0" class="key tap">F7</text>
</g>
<g transform="translate(229, 95)" class="key keypos-13">
<rect rx="6" ry="6" x="-26" y="-26" width="52" height="52" class="key"/>
<text x="0" y="0" class="key tap">F8</text>
</g>
<g transform="translate(285, 101)" class="key keypos-14">
<rect rx="6" ry="6" x="-26" y="-26" width="52" height="52" class="key"/>
<text x="0" y="0" class="key tap">F14</text>
</g>
<g transform="translate(484, 101)" class="key keypos-15">
<rect rx="6" ry="6" x="-26" y="-26" width="52" height="52" class="key"/>
<use href="#bluetooth" xlink:href="#bluetooth" x="-6" y="-11" height="22" width="11.0" class="key tap glyph bluetooth"/>
<text x="0" y="24" class="key hold"><tspan style="font-size: 64%">1 / ⇧ Clear</tspan></text>
</g>
<g transform="translate(540, 95)" class="key special keypos-16">
<rect rx="6" ry="6" x="-26" y="-26" width="52" height="52" class="key special"/>
<text x="0" y="0" class="key special tap">⏯</text>
<text x="0" y="24" class="key special hold">◆</text>
</g>
<g transform="translate(599, 81)" class="key keypos-17">
<rect rx="6" ry="6" x="-26" y="-26" width="52" height="52" class="key"/>
<text x="0" y="0" class="key tap">♪×</text>
<text x="0" y="24" class="key hold">⌃</text>
</g>
<g transform="translate(661, 98) rotate(3.0)" class="key keypos-18">
<rect rx="6" ry="6" x="-26" y="-26" width="52" height="52" class="key"/>
<text x="0" y="0" class="key tap">Lock</text>
<text x="0" y="24" class="key hold">⌥</text>
</g>
<g transform="translate(731, 142) rotate(7.0)" class="key keypos-19">
<rect rx="6" ry="6" x="-26" y="-26" width="52" height="52" class="key"/>
<text x="0" y="0" class="key tap">Print</text>
<text x="0" y="24" class="key hold">⇧</text>
</g>
<g transform="translate(44, 195) rotate(-7.0)" class="key keypos-20">
<rect rx="6" ry="6" x="-26" y="-26" width="52" height="52" class="key"/>
<text x="0" y="0" class="key tap">F9</text>
</g>
<g transform="translate(110, 151) rotate(-3.0)" class="key keypos-21">
<rect rx="6" ry="6" x="-26" y="-26" width="52" height="52" class="key"/>
<text x="0" y="0" class="key tap">F10</text>
</g>
<g transform="translate(169, 134)" class="key keypos-22">
<rect rx="6" ry="6" x="-26" y="-26" width="52" height="52" class="key"/>
<text x="0" y="0" class="key tap">F11</text>
</g>
<g transform="translate(229, 148)" class="key keypos-23">
<rect rx="6" ry="6" x="-26" y="-26" width="52" height="52" class="key"/>
<text x="0" y="0" class="key tap">F12</text>
</g>
<g transform="translate(285, 154)" class="key keypos-24">
<rect rx="6" ry="6" x="-26" y="-26" width="52" height="52" class="key"/>
<text x="0" y="0" class="key tap">F15</text>
</g>
<g transform="translate(484, 154)" class="key keypos-25">
<rect rx="6" ry="6" x="-26" y="-26" width="52" height="52" class="key"/>
<use href="#bluetooth" xlink:href="#bluetooth" x="-6" y="-11" height="22" width="11.0" class="key tap glyph bluetooth"/>
<text x="0" y="24" class="key hold">0</text>
</g>
<g transform="translate(540, 148)" class="key special keypos-26">
<rect rx="6" ry="6" x="-26" y="-26" width="52" height="52" class="key special"/>
<text x="0" y="0" class="key special tap">⏮</text>
</g>
<g transform="translate(599, 134)" class="key keypos-27">
<rect rx="6" ry="6" x="-26" y="-26" width="52" height="52" class="key"/>
<text x="0" y="0" class="key tap">♪−</text>
</g>
<g transform="translate(658, 151) rotate(3.0)" class="key keypos-28">
<rect rx="6" ry="6" x="-26" y="-26" width="52" height="52" class="key"/>
<text x="0" y="0" class="key tap">☀−</text>
</g>
<g transform="translate(724, 195) rotate(7.0)" class="key keypos-29">
<rect rx="6" ry="6" x="-26" y="-26" width="52" height="52" class="key"/>
<text x="0" y="0" class="key tap">Insert</text>
</g>
<g transform="translate(272, 222) rotate(10.0)" class="key held keypos-30">
<rect rx="6" ry="6" x="-26" y="-26" width="52" height="52" class="key held"/>
</g>
<g transform="translate(327, 238) rotate(20.0)" class="key held keypos-31">
<rect rx="6" ry="6" x="-26" y="-26" width="52" height="52" class="key held"/>
<text x="0" y="0" class="key held tap">Boot</text>
</g>
<g transform="translate(441, 238) rotate(-20.0)" class="key keypos-32">
<rect rx="6" ry="6" x="-26" y="-26" width="52" height="52" class="key"/>
<text x="0" y="0" class="key tap">Reset</text>
</g>
<g transform="translate(496, 222) rotate(-10.0)" class="key keypos-33">
<rect rx="6" ry="6" x="-26" y="-26" width="52" height="52" class="key"/>
<text x="0" y="0" class="key tap">
<tspan x="0" dy="-0.6em">Studio</tspan><tspan x="0" dy="1.2em">🔓</tspan>
</text>
</g>
</g>
</g>
<g transform="translate(30, 1319)" class="layer-Gaming">
<text x="0" y="28" class="label" id="Gaming">Gaming:</text>
<g transform="translate(0, 56)">
<g transform="translate(31, 90) rotate(-7.0)" class="key keypos-0">
<rect rx="6" ry="6" x="-26" y="-26" width="52" height="52" class="key"/>
<text x="0" y="0" class="key tap">Q</text>
</g>
<g transform="translate(104, 45) rotate(-3.0)" class="key keypos-1">
<rect rx="6" ry="6" x="-26" y="-26" width="52" height="52" class="key"/>
<text x="0" y="0" class="key tap">W</text>
</g>
<g transform="translate(169, 28)" class="key keypos-2">
<rect rx="6" ry="6" x="-26" y="-26" width="52" height="52" class="key"/>
<text x="0" y="0" class="key tap">E</text>
</g>
<g transform="translate(229, 42)" class="key keypos-3">
<rect rx="6" ry="6" x="-26" y="-26" width="52" height="52" class="key"/>
<text x="0" y="0" class="key tap">R</text>
</g>
<g transform="translate(285, 48)" class="key keypos-4">
<rect rx="6" ry="6" x="-26" y="-26" width="52" height="52" class="key"/>
<text x="0" y="0" class="key tap">T</text>
</g>
<g transform="translate(484, 48)" class="key keypos-5">
<rect rx="6" ry="6" x="-26" y="-26" width="52" height="52" class="key"/>
<text x="0" y="0" class="key tap">Y</text>
</g>
<g transform="translate(540, 42)" class="key keypos-6">
<rect rx="6" ry="6" x="-26" y="-26" width="52" height="52" class="key"/>
<text x="0" y="0" class="key tap">U</text>
</g>
<g transform="translate(599, 28)" class="key keypos-7">
<rect rx="6" ry="6" x="-26" y="-26" width="52" height="52" class="key"/>
<text x="0" y="0" class="key tap">I</text>
</g>
<g transform="translate(664, 45) rotate(3.0)" class="key keypos-8">
<rect rx="6" ry="6" x="-26" y="-26" width="52" height="52" class="key"/>
<text x="0" y="0" class="key tap">O</text>
</g>
<g transform="translate(737, 90) rotate(7.0)" class="key keypos-9">
<rect rx="6" ry="6" x="-26" y="-26" width="52" height="52" class="key"/>
<text x="0" y="0" class="key tap">P</text>
</g>
<g transform="translate(38, 142) rotate(-7.0)" class="key keypos-10">
<rect rx="6" ry="6" x="-26" y="-26" width="52" height="52" class="key"/>
<text x="0" y="0" class="key tap">A</text>
</g>
<g transform="translate(107, 98) rotate(-3.0)" class="key keypos-11">
<rect rx="6" ry="6" x="-26" y="-26" width="52" height="52" class="key"/>
<text x="0" y="0" class="key tap">S</text>
</g>
<g transform="translate(169, 81)" class="key keypos-12">
<rect rx="6" ry="6" x="-26" y="-26" width="52" height="52" class="key"/>
<text x="0" y="0" class="key tap">D</text>
</g>
<g transform="translate(229, 95)" class="key keypos-13">
<rect rx="6" ry="6" x="-26" y="-26" width="52" height="52" class="key"/>
<text x="0" y="0" class="key tap">F</text>
</g>
<g transform="translate(285, 101)" class="key keypos-14">
<rect rx="6" ry="6" x="-26" y="-26" width="52" height="52" class="key"/>
<text x="0" y="0" class="key tap">G</text>
</g>
<g transform="translate(484, 101)" class="key keypos-15">
<rect rx="6" ry="6" x="-26" y="-26" width="52" height="52" class="key"/>
<text x="0" y="0" class="key tap">H</text>
</g>
<g transform="translate(540, 95)" class="key keypos-16">
<rect rx="6" ry="6" x="-26" y="-26" width="52" height="52" class="key"/>
<text x="0" y="0" class="key tap">J</text>
<text x="0" y="24" class="key hold">RSHFT</text>
</g>
<g transform="translate(599, 81)" class="key keypos-17">
<rect rx="6" ry="6" x="-26" y="-26" width="52" height="52" class="key"/>
<text x="0" y="0" class="key tap">K</text>
<text x="0" y="24" class="key hold">◆</text>
</g>
<g transform="translate(661, 98) rotate(3.0)" class="key keypos-18">
<rect rx="6" ry="6" x="-26" y="-26" width="52" height="52" class="key"/>
<text x="0" y="0" class="key tap">L</text>
<text x="0" y="24" class="key hold">⌥</text>
</g>
<g transform="translate(731, 142) rotate(7.0)" class="key keypos-19">
<rect rx="6" ry="6" x="-26" y="-26" width="52" height="52" class="key"/>
<text x="0" y="0" class="key tap">;</text>
<text x="0" y="24" class="key hold">⌃</text>
</g>
<g transform="translate(44, 195) rotate(-7.0)" class="key keypos-20">
<rect rx="6" ry="6" x="-26" y="-26" width="52" height="52" class="key"/>
<text x="0" y="0" class="key tap">Z</text>
</g>
<g transform="translate(110, 151) rotate(-3.0)" class="key keypos-21">
<rect rx="6" ry="6" x="-26" y="-26" width="52" height="52" class="key"/>
<text x="0" y="0" class="key tap">X</text>
</g>
<g transform="translate(169, 134)" class="key keypos-22">
<rect rx="6" ry="6" x="-26" y="-26" width="52" height="52" class="key"/>
<text x="0" y="0" class="key tap">C</text>
</g>
<g transform="translate(229, 148)" class="key keypos-23">
<rect rx="6" ry="6" x="-26" y="-26" width="52" height="52" class="key"/>
<text x="0" y="0" class="key tap">V</text>
</g>
<g transform="translate(285, 154)" class="key keypos-24">
<rect rx="6" ry="6" x="-26" y="-26" width="52" height="52" class="key"/>
<text x="0" y="0" class="key tap">B</text>
</g>
<g transform="translate(484, 154)" class="key keypos-25">
<rect rx="6" ry="6" x="-26" y="-26" width="52" height="52" class="key"/>
<text x="0" y="0" class="key tap">N</text>
</g>
<g transform="translate(540, 148)" class="key keypos-26">
<rect rx="6" ry="6" x="-26" y="-26" width="52" height="52" class="key"/>
<text x="0" y="0" class="key tap">M</text>
</g>
<g transform="translate(599, 134)" class="key keypos-27">
<rect rx="6" ry="6" x="-26" y="-26" width="52" height="52" class="key"/>
<text x="0" y="0" class="key tap">,</text>
</g>
<g transform="translate(658, 151) rotate(3.0)" class="key keypos-28">
<rect rx="6" ry="6" x="-26" y="-26" width="52" height="52" class="key"/>
<text x="0" y="0" class="key tap">.</text>
</g>
<g transform="translate(724, 195) rotate(7.0)" class="key keypos-29">
<rect rx="6" ry="6" x="-26" y="-26" width="52" height="52" class="key"/>
<text x="0" y="0" class="key tap">/</text>
</g>
<g transform="translate(272, 222) rotate(10.0)" class="key special keypos-30">
<rect rx="6" ry="6" x="-26" y="-26" width="52" height="52" class="key special"/>
<text x="0" y="0" class="key special tap">⇧</text>
</g>
<g transform="translate(327, 238) rotate(20.0)" class="key special keypos-31">
<rect rx="6" ry="6" x="-26" y="-26" width="52" height="52" class="key special"/>
<text x="0" y="0" class="key special tap">⎵</text>
</g>
<g transform="translate(441, 238) rotate(-20.0)" class="key special trigger-nav keypos-32">
<rect rx="6" ry="6" x="-26" y="-26" width="52" height="52" class="key special trigger-nav"/>
<text x="0" y="0" class="key special trigger-nav tap">⌫</text>
<text x="0" y="24" class="key special trigger-nav hold">⌖</text>
</g>
<g transform="translate(496, 222) rotate(-10.0)" class="key special trigger-symbols keypos-33">
<rect rx="6" ry="6" x="-26" y="-26" width="52" height="52" class="key special trigger-symbols"/>
<text x="0" y="0" class="key special trigger-symbols tap">⇥</text>
<text x="0" y="24" class="key special trigger-symbols hold">#</text>
</g>
<g class="combo combopos-0">
<rect rx="6" ry="6" x="669" y="158" width="44" height="30" class="combo"/>
<a href="#Base">
<text x="691" y="173" class="combo tap layer-activator">Base</text>
</a></g>
</g>
</g>
</g>
</svg>
